<svg id="Layer_1" data-name="Layer 1" xmlns="http://www.w3.org/2000/svg" viewBox="0 0 1616.52 320.15"><path d="M326.2,509.66v60.73H327V509.66Zm151,0a155.53,155.53,0,0,1,3.18,31.45V509.66Zm0,0H327v60.73h92.6v62.82h60.73v-92.1A155.53,155.53,0,0,0,477.18,509.66ZM327,633.12c-.91.09-1.84.09-2.76.09a92,92,0,0,1,0-184c.92,0,1.85,0,2.76.08v-.08h92.6v-61.4H327A153.31,153.31,0,0,0,173.71,541.11c0,84.65,68.68,153.24,153.32,153.24h92.18V633.21H327Zm-.83-123.46v60.73H327V509.66Zm0,0v60.73H327V509.66Zm0,0v60.73H327V509.66Z" transform="translate(-173.71 -374.26)" fill="#5bbd79"/><path d="M696,449.16v.09h92.51v-.09Zm0,0v.09h92.51v-.09Zm0,245.17v.08h92.59v-.08ZM941.91,541.09c0,84.65-68.59,153.15-153.32,153.24H635.27V633.18H696v.08h92.51v-.16c1,.08,1.84.08,2.84.08a92,92,0,1,0,0-184,15.93,15.93,0,0,0-2.84.17v-.17H696v.09H635.27v-61.4H785.33c1-.08,2.09-.08,3.18-.08A153.32,153.32,0,0,1,941.91,541.09Zm200.53-74.93v-70h26.9a38.7,38.7,0,0,1,14.6,2.7,36.77,36.77,0,0,1,11.7,7.45,34.83,34.83,0,0,1,7.85,11.15,35,35,0,0,1,0,27.55,33.17,33.17,0,0,1-7.85,11.05,37.68,37.68,0,0,1-11.75,7.4,38.7,38.7,0,0,1-14.6,2.7Zm14.5-12.9h12.2a22.33,22.33,0,0,0,15.85-6.4,21,21,0,0,0,4.7-6.95,22.19,22.19,0,0,0,1.65-8.65,22.73,22.73,0,0,0-1.65-8.65,21.42,21.42,0,0,0-4.7-7.1,22.08,22.08,0,0,0-15.75-6.45h-12.3Zm-14.5,122.9v-70h26.9a38.7,38.7,0,0,1,14.6,2.7,36.77,36.77,0,0,1,11.7,7.45,34.83,34.83,0,0,1,7.85,11.15,35,35,0,0,1,0,27.55,33.17,33.17,0,0,1-7.85,11,37.68,37.68,0,0,1-11.75,7.4,38.7,38.7,0,0,1-14.6,2.7Zm14.5-12.9h12.2a22.33,22.33,0,0,0,15.85-6.4,21,21,0,0,0,4.7-7,22.19,22.19,0,0,0,1.65-8.65,22.73,22.73,0,0,0-1.65-8.65,21.42,21.42,0,0,0-4.7-7.1,22.08,22.08,0,0,0-15.75-6.45h-12.3Zm-14.5,122.9v-70h26.9a38.7,38.7,0,0,1,14.6,2.7,36.77,36.77,0,0,1,11.7,7.45,34.83,34.83,0,0,1,7.85,11.15,35,35,0,0,1,0,27.55,33.17,33.17,0,0,1-7.85,11,37.68,37.68,0,0,1-11.75,7.4,38.7,38.7,0,0,1-14.6,2.7Zm14.5-12.9h12.2a22.33,22.33,0,0,0,15.85-6.4,21,21,0,0,0,4.7-7,22.19,22.19,0,0,0,1.65-8.65,22.73,22.73,0,0,0-1.65-8.65,21.42,21.42,0,0,0-4.7-7.1,22.08,22.08,0,0,0-15.75-6.45h-12.3Z" transform="translate(-173.71 -374.26)" fill="#57a7dc"/><path d="M727.61,602a92.31,92.31,0,0,1-92.34,92.34H480.36V633.21H633.09a31.41,31.41,0,0,0,0-62.82H541.17V509.66h93.18a30.36,30.36,0,0,0,0-60.72,6.67,6.67,0,0,0-1.26.08,20.57,20.57,0,0,0-2.42.17H480.36v-61.4h155a91.3,91.3,0,0,1,68.17,152A92.23,92.23,0,0,1,727.61,602Zm503.13-135.85v-70h-14.5v70Zm27.2,0v-26.3h20.6a25.46,25.46,0,0,0,12.15-2.85,20.67,20.67,0,0,0,11.25-18.85,21.73,21.73,0,0,0-3-11.35,21,21,0,0,0-8.25-7.8,25.35,25.35,0,0,0-12.2-2.85h-35.1v70Zm0-57.6h19a10.68,10.68,0,0,1,7.55,2.65,9.18,9.18,0,0,1,2.85,7.05,8.92,8.92,0,0,1-2.85,6.85,10.63,10.63,0,0,1-7.55,2.65h-19Zm106.4,57.6v-12.8H1326v-57.2h-14.5v70Zm53.75-1.65a36.14,36.14,0,0,0,11.8-7.7,36,36,0,0,0,0-51.3,36.3,36.3,0,0,0-11.8-7.7,39.6,39.6,0,0,0-29,0,36.11,36.11,0,0,0-19.7,19.2,36.55,36.55,0,0,0,0,28.3,36.11,36.11,0,0,0,19.7,19.2,39.6,39.6,0,0,0,29,0Zm-23.2-12.3a21.5,21.5,0,0,1-7.05-4.85,22.5,22.5,0,0,1-4.7-7.25,23.74,23.74,0,0,1-1.7-9.15,22.52,22.52,0,0,1,1.7-8.85,22.94,22.94,0,0,1,4.7-7.15,21.81,21.81,0,0,1,7.05-4.85,22.19,22.19,0,0,1,8.85-1.75,21.36,21.36,0,0,1,8.6,1.75,22,22,0,0,1,7,4.85,22.94,22.94,0,0,1,4.7,7.15,24.67,24.67,0,0,1,0,18,22.5,22.5,0,0,1-4.7,7.25,21.72,21.72,0,0,1-7,4.85,21.43,21.43,0,0,1-8.7,1.75A21.74,21.74,0,0,1,1394.89,452.21Zm27-64.45-11.4-13.5h-14l-11.4,13.5h10.8l7.5-7.4,7.4,7.4Zm42,78.4v-51.7l24.2,46.7,24.3-46.5v51.5H1526v-70h-18.5l-19.2,37.8-19.1-37.8h-18.7v70Zm129,0v-12.6h-39.7v-16.7h25.9v-12.1h-25.9v-16h39.3v-12.6h-53.8v70Zm51-1.8a23.78,23.78,0,0,0,10.3-7.8,19.47,19.47,0,0,0,3.65-11.8q0-8.1-5.25-13.05t-15.75-6.65l-13.2-2.1q-5.31-1-7.65-2.7a6.42,6.42,0,0,1-.8-9.15,10.3,10.3,0,0,1,4.45-2.75,21,21,0,0,1,6.8-1q11.1,0,22.1,8.4l7.8-10.7a42.44,42.44,0,0,0-13.55-7.25,48.94,48.94,0,0,0-15.35-2.55,38.13,38.13,0,0,0-14.65,2.55,21.55,21.55,0,0,0-9.55,7.3,18.81,18.81,0,0,0-3.4,11.25q0,7.61,4.7,12.35t13.6,6.35l13.9,2.4c4.2.67,7.16,1.67,8.9,3a6.68,6.68,0,0,1,2.6,5.6,6.94,6.94,0,0,1-1.75,4.7,10.9,10.9,0,0,1-5,3.05,24.52,24.52,0,0,1-7.6,1.05,29.58,29.58,0,0,1-12-2.45,45.12,45.12,0,0,1-11.75-7.85l-8.3,10.5a47,47,0,0,0,14.4,8.9,44.42,44.42,0,0,0,16.5,3.2A40.41,40.41,0,0,0,1643.89,464.36Zm-381.3,108.95a26.62,26.62,0,0,0,10.75-10.9,34.39,34.39,0,0,0,3.8-16.55v-39.7h-14.5v39.7a21.37,21.37,0,0,1-2,9.55,14.37,14.37,0,0,1-5.65,6.2,18.88,18.88,0,0,1-17.5,0,14.51,14.51,0,0,1-5.8-6.2,20.85,20.85,0,0,1-2-9.55v-39.7h-14.4v39.7a35,35,0,0,0,3.75,16.65,25.91,25.91,0,0,0,10.75,10.85,33.78,33.78,0,0,0,16.4,3.8A33.39,33.39,0,0,0,1262.59,573.31Zm40.65,2.85v-26.3h20.6A25.46,25.46,0,0,0,1336,547a20.67,20.67,0,0,0,11.25-18.85,21.82,21.82,0,0,0-3-11.35A21,21,0,0,0,1336,509a25.38,25.38,0,0,0-12.2-2.85h-35.1v70Zm0-57.6h19a10.68,10.68,0,0,1,7.55,2.65,9.18,9.18,0,0,1,2.85,7,8.92,8.92,0,0,1-2.85,6.85,10.63,10.63,0,0,1-7.55,2.65h-19Zm106.4,57.6v-12.8h-38.3v-57.2h-14.5v70Zm24.5,0v-70h-14.5v70Zm58.1-.55a37.58,37.58,0,0,0,10-4.45,33.19,33.19,0,0,0,7.85-6.9l-9.4-9.4a24.86,24.86,0,0,1-8.4,6.6,23.46,23.46,0,0,1-10.3,2.3,23.74,23.74,0,0,1-9.15-1.7,21.47,21.47,0,0,1-7.2-4.75,22.05,22.05,0,0,1-4.8-7.2,22.71,22.71,0,0,1-1.75-9,23.45,23.45,0,0,1,1.7-9.1,22.27,22.27,0,0,1,4.7-7.15,21.93,21.93,0,0,1,7.1-4.8,22.26,22.26,0,0,1,8.8-1.75,25,25,0,0,1,10.7,2.35,24.16,24.16,0,0,1,8.7,7l9.8-9.6a31.71,31.71,0,0,0-8-7,41,41,0,0,0-10-4.5,39.49,39.49,0,0,0-11.2-1.6,38.26,38.26,0,0,0-14.55,2.75,36.85,36.85,0,0,0-11.85,7.7,35.82,35.82,0,0,0-8,11.5,35.68,35.68,0,0,0,7.9,39.75,36.19,36.19,0,0,0,11.85,7.65,38.62,38.62,0,0,0,14.6,2.75A39.49,39.49,0,0,0,1492.24,575.61Zm34.8.55,7.1-18.3h29l7.1,18.3h15.7l-28.4-70h-16.8l-28.8,70Zm21.8-55.8,9.9,25.8h-20.1Zm63.7,55.8V519h23.6v-12.8h-61.7V519H1598v57.2Zm27.1,0,7.1-18.3h29l7.1,18.3h15.7l-28.4-70h-16.8l-28.8,70Zm21.8-55.8,9.9,25.8h-20.1Zm85.14,54a23.66,23.66,0,0,0,10.3-7.8,19.41,19.41,0,0,0,3.66-11.8q0-8.1-5.25-13t-15.75-6.65l-13.21-2.1q-5.3-1-7.65-2.7a5.89,5.89,0,0,1-2.35-5.1,6,6,0,0,1,1.55-4,10.43,10.43,0,0,1,4.45-2.75,21.13,21.13,0,0,1,6.8-1q11.11,0,22.1,8.4l7.81-10.7a42.38,42.38,0,0,0-13.56-7.25,48.85,48.85,0,0,0-15.35-2.55,38.17,38.17,0,0,0-14.65,2.55,21.61,21.61,0,0,0-9.55,7.3,18.87,18.87,0,0,0-3.39,11.25q0,7.6,4.69,12.35t13.6,6.35l13.9,2.4q6.3,1,8.9,3a6.65,6.65,0,0,1,2.6,5.6,6.89,6.89,0,0,1-1.75,4.7,10.81,10.81,0,0,1-4.94,3,24.54,24.54,0,0,1-7.61,1.05,29.62,29.62,0,0,1-12-2.45,45.45,45.45,0,0,1-11.75-7.85l-8.3,10.5a47,47,0,0,0,14.4,8.9,44.42,44.42,0,0,0,16.5,3.2A40.34,40.34,0,0,0,1746.58,574.36ZM1265.09,684.51a36.14,36.14,0,0,0,11.8-7.7,36,36,0,0,0,0-51.3,36.3,36.3,0,0,0-11.8-7.7,39.6,39.6,0,0,0-29,0,36.11,36.11,0,0,0-19.7,19.2,36.55,36.55,0,0,0,0,28.3,36.11,36.11,0,0,0,19.7,19.2,39.6,39.6,0,0,0,29,0Zm-23.2-12.3a21.5,21.5,0,0,1-7.05-4.85,22.5,22.5,0,0,1-4.7-7.25,23.93,23.93,0,0,1-1.7-9.15,22.7,22.7,0,0,1,1.7-8.85,22.94,22.94,0,0,1,4.7-7.15,21.81,21.81,0,0,1,7.05-4.85,22.19,22.19,0,0,1,8.85-1.75,21.33,21.33,0,0,1,8.6,1.75,21.93,21.93,0,0,1,7,4.85,22.94,22.94,0,0,1,4.7,7.15,24.67,24.67,0,0,1,0,18,22.5,22.5,0,0,1-4.7,7.25,22.22,22.22,0,0,1-24.45,4.85Zm101,13.4a37.58,37.58,0,0,0,10-4.45,33.19,33.19,0,0,0,7.85-6.9l-9.4-9.4a24.86,24.86,0,0,1-8.4,6.6,23.46,23.46,0,0,1-10.3,2.3,23.74,23.74,0,0,1-9.15-1.7,21.47,21.47,0,0,1-7.2-4.75,22.21,22.21,0,0,1-4.8-7.2,22.71,22.71,0,0,1-1.75-9,23.45,23.45,0,0,1,1.7-9.1,22.27,22.27,0,0,1,4.7-7.15,21.93,21.93,0,0,1,7.1-4.8,22.3,22.3,0,0,1,8.8-1.75,24.93,24.93,0,0,1,10.7,2.35,24.16,24.16,0,0,1,8.7,7l9.8-9.6a31.71,31.71,0,0,0-8-7,41,41,0,0,0-10-4.5,39.43,39.43,0,0,0-11.2-1.6,38.26,38.26,0,0,0-14.55,2.75,36.85,36.85,0,0,0-11.85,7.7,35.82,35.82,0,0,0-8,11.5,35.68,35.68,0,0,0,7.9,39.75,36.4,36.4,0,0,0,11.85,7.65,38.62,38.62,0,0,0,14.6,2.75A39.43,39.43,0,0,0,1342.94,685.61Zm72.75-2.3a26.68,26.68,0,0,0,10.75-10.9,34.39,34.39,0,0,0,3.8-16.55v-39.7h-14.5v39.7a21.37,21.37,0,0,1-2,9.55,14.43,14.43,0,0,1-5.65,6.2,18.88,18.88,0,0,1-17.5,0,14.45,14.45,0,0,1-5.8-6.2,20.85,20.85,0,0,1-2-9.55v-39.7h-14.4v39.7a35,35,0,0,0,3.75,16.65,25.91,25.91,0,0,0,10.75,10.85,33.76,33.76,0,0,0,16.4,3.8A33.42,33.42,0,0,0,1415.69,683.31Zm39.55,2.85v-51.7l24.2,46.7,24.3-46.5v51.5h13.6v-70h-18.5l-19.2,37.8-19.1-37.8h-18.7v70Zm129,0v-12.6h-39.7v-16.7h25.9v-12.1h-25.9v-16h39.3v-12.6H1530v70Zm24,0v-46.8l35.7,46.8h12.8v-70H1643v45.2l-34.71-45.2h-13.79v70Zm94.8,0V629h23.59v-12.8h-61.7V629h23.61v57.2Zm73.24-1.8a23.66,23.66,0,0,0,10.3-7.8,19.41,19.41,0,0,0,3.65-11.8q0-8.1-5.25-13t-15.75-6.65L1756,643q-5.29-1-7.65-2.7a5.89,5.89,0,0,1-2.35-5.1,6,6,0,0,1,1.55-4,10.43,10.43,0,0,1,4.45-2.75,21.09,21.09,0,0,1,6.8-1q11.1,0,22.1,8.4l7.8-10.7a42.23,42.23,0,0,0-13.55-7.25,48.85,48.85,0,0,0-15.35-2.55,38.17,38.17,0,0,0-14.65,2.55,21.61,21.61,0,0,0-9.55,7.3,18.88,18.88,0,0,0-3.4,11.25q0,7.6,4.7,12.35t13.6,6.35l13.9,2.4q6.3,1,8.9,3a6.65,6.65,0,0,1,2.6,5.6,6.89,6.89,0,0,1-1.75,4.7,10.8,10.8,0,0,1-5,3,24.43,24.43,0,0,1-7.6,1.05,29.62,29.62,0,0,1-12-2.45,45.45,45.45,0,0,1-11.75-7.85l-8.3,10.5A47,47,0,0,0,1744,684a44.42,44.42,0,0,0,16.5,3.2A40.34,40.34,0,0,0,1776.28,684.36Zm-740.34,10H1048V387.83h-12.08Z" transform="translate(-173.71 -374.26)" fill="#d1d8e0"/></svg>