<svg id="Layer_1" data-name="Layer 1" xmlns="http://www.w3.org/2000/svg" viewBox="0 0 782 782"><rect x="598.82" y="133" width="782" height="782" rx="80.56" transform="translate(915 -598.82) rotate(90)" fill="#45aaf2"/><path d="M1078.1,349.11c-1.24,0-2.48,0-3.63.09H977.41a113.5,113.5,0,0,1,52.21,70h48.48v.19a18.66,18.66,0,0,1,3.25-.19,105,105,0,0,1,0,210c-1.15,0-2.1,0-3.25-.1v.19h-47.72a114.13,114.13,0,0,1-52.78,69.67h100.59c96.69-.09,175-78.26,175-174.84S1174.78,349.11,1078.1,349.11ZM903.35,557.45H914v-.57A99.35,99.35,0,0,1,903.35,557.45Zm0,0H914v-.57A99.35,99.35,0,0,1,903.35,557.45Zm77.78-34.93a103.67,103.67,0,0,0,26.34-69.29,102.47,102.47,0,0,0-5.72-34v-.09a104.27,104.27,0,0,0-93.06-70c-1.71-.09-3.53-.09-5.34-.09H726.5v70.05H898a24.27,24.27,0,0,1,2.77-.19,6.93,6.93,0,0,1,1.43-.1,3.71,3.71,0,0,1,1,.1,24.88,24.88,0,0,1,3.82.28,34.62,34.62,0,0,1-4.87,68.91H795.88v69.29H900.77a34.33,34.33,0,0,1,14.32,3.06,35.81,35.81,0,0,1-14.32,68.62H726.5v69.76H903.25a105.39,105.39,0,0,0,77.88-176.37ZM914,488.74a98.65,98.65,0,0,0-10.79-.58H914Zm-10.69,68.71H914v-.57A99.35,99.35,0,0,1,903.35,557.45Z" transform="translate(-598.82 -133)" fill="#fff"/></svg>